<svg width="31" height="30" viewBox="0 0 31 30" fill="none" xmlns="http://www.w3.org/2000/svg">
<g clip-path="url(#clip0_13_66)">
<path d="M15.5 0.916672C7.44565 0.916672 0.916687 7.44563 0.916687 15.5C0.916687 21.9801 5.14658 27.4664 10.9938 29.3658H20.0063C25.8535 27.4664 30.0834 21.9801 30.0834 15.5C30.0834 7.44563 23.5544 0.916672 15.5 0.916672Z" fill="#3F3F3F"/>
<path opacity="0.05" d="M19.8823 28.6221L19.875 24.3944C19.875 23.7097 19.7146 23.041 19.4069 22.4351C23.5201 21.609 25.5217 19.1772 25.5217 15.0144C25.5217 13.3701 25.0368 11.9183 24.0808 10.6977C24.1537 10.4666 24.2077 10.2274 24.2412 9.98239C24.3783 8.98416 24.2245 8.33156 24.1005 7.80656L24.0808 7.72198C23.9452 7.14156 23.7826 6.72739 23.776 6.70989L23.6951 6.50427L23.6141 6.29864L23.3939 6.27531L23.173 6.25198C23.173 6.25198 23.0279 6.23666 22.8077 6.23666C22.5022 6.23666 22.0494 6.26729 21.6213 6.41239L21.4784 6.46052C20.9388 6.64208 20.4291 6.81416 19.716 7.24C19.5075 7.36468 19.2793 7.50687 19.035 7.66583C17.931 7.39239 16.7432 7.25312 15.5 7.25312C14.2444 7.25312 13.0463 7.39312 11.9351 7.66948C11.6879 7.50906 11.4582 7.36541 11.2482 7.24C10.5351 6.81416 10.0254 6.64281 9.48582 6.46052L9.3429 6.41239C8.91634 6.26729 8.4628 6.23666 8.15728 6.23666C7.93707 6.23666 7.79196 6.25198 7.79196 6.25198L7.57175 6.27531L7.353 6.29791L7.27134 6.50281L7.18894 6.70916C7.18165 6.72812 7.01905 7.14229 6.88342 7.72344L6.86373 7.80729C6.73978 8.33156 6.58592 8.98489 6.72301 9.98239C6.75801 10.2347 6.81415 10.4819 6.89071 10.7196C5.95373 11.9344 5.47905 13.3781 5.47905 15.0144C5.47905 19.167 7.4828 21.5973 11.6019 22.43C11.4604 22.7129 11.3503 23.0119 11.2723 23.3225C11.1286 23.3714 10.9967 23.4042 10.88 23.4224C10.7064 23.4486 10.5249 23.4618 10.3411 23.4618C9.84092 23.4618 9.4479 23.3641 9.29478 23.2729C9.06655 23.1373 8.65894 22.7428 8.26373 22.166C7.92613 21.6739 7.39967 21.03 6.81123 20.7609C6.30228 20.5283 5.76342 20.3949 5.33176 20.3949C5.23113 20.3949 5.13853 20.4022 5.05759 20.4153C4.68061 20.4751 4.36561 20.6822 4.19426 20.9841C4.04623 21.2444 4.0229 21.5477 4.13009 21.816C4.28978 22.2156 4.75061 22.5343 5.10936 22.7311C5.28582 22.8281 5.66717 23.1825 5.88957 23.5398C6.05655 23.8081 6.13384 23.9992 6.24103 24.2631C6.30446 24.4199 6.37446 24.5905 6.46925 24.7969C6.81196 25.5421 7.88165 26.1998 8.00269 26.272C8.5904 26.6242 9.57842 26.7372 10.3047 26.77L10.3944 26.7722H10.3951C10.5701 26.7722 10.8107 26.7554 11.1272 26.7204V28.6257C11.1286 29.0115 10.7356 29.099 10.2157 29.0909L10.6146 29.2251C12.1422 29.7712 13.7828 30.0833 15.5 30.0833C17.2172 30.0833 18.8578 29.7712 20.3876 29.2258L20.9002 29.0348C20.3818 29.0173 19.8867 28.9327 19.8823 28.6221Z" fill="black"/>
<path opacity="0.07" d="M20.4445 29.2062C20.1484 29.2404 19.5104 29.1267 19.5104 28.6265V24.3944C19.5104 23.5967 19.2712 22.8259 18.8279 22.169C23.1409 21.4712 25.1564 19.1845 25.1564 15.0144C25.1564 13.3832 24.6561 11.9563 23.6696 10.7692C23.7695 10.503 23.8395 10.2223 23.8796 9.93282C24.0072 9.0024 23.8679 8.41178 23.7454 7.89042L23.7257 7.80584C23.5959 7.25095 23.4428 6.86011 23.4363 6.84407L23.3553 6.63845L23.1344 6.61511C23.1344 6.61511 23.0046 6.60126 22.807 6.60126C22.5292 6.60126 22.1186 6.62824 21.738 6.75803L21.5951 6.80615C21.0745 6.98188 20.5823 7.1474 19.9027 7.55282C19.6606 7.69719 19.3908 7.86709 19.0999 8.05886C17.9821 7.76647 16.7724 7.61772 15.5 7.61772C14.2152 7.61772 12.9953 7.7672 11.8695 8.06251C11.5756 7.86928 11.3044 7.69865 11.0608 7.55282C10.3813 7.1474 9.88906 6.98115 9.36844 6.80615L9.22552 6.75803C8.84563 6.62897 8.43438 6.60126 8.15656 6.60126C7.95896 6.60126 7.82917 6.61511 7.82917 6.61511L7.60896 6.63845L7.52656 6.8448C7.52 6.86084 7.36688 7.25167 7.23708 7.80657L7.2174 7.89115C7.09417 8.41251 6.9549 9.0024 7.08323 9.93282C7.12406 10.2296 7.19698 10.5169 7.30052 10.7889C6.33292 11.9701 5.84292 13.3898 5.84292 15.0144C5.84292 19.1728 7.85979 21.4588 12.1765 22.1646C11.8884 22.5948 11.6872 23.0797 11.5836 23.5967C11.343 23.6915 11.125 23.7542 10.934 23.7833C10.7422 23.8125 10.5424 23.8271 10.3404 23.8271C9.83729 23.8271 9.35386 23.733 9.10813 23.5872C8.78729 23.3969 8.3374 22.9207 7.96188 22.3731C7.70667 22.0013 7.19844 21.3399 6.65813 21.0934C6.1951 20.882 5.71167 20.7602 5.33031 20.7602C5.25011 20.7602 5.17719 20.766 5.11302 20.7763C4.84615 20.8185 4.62594 20.96 4.50927 21.1656C4.41594 21.329 4.40063 21.5178 4.46625 21.6819C4.59677 22.0085 5.08021 22.3017 5.28219 22.4125C5.52646 22.5467 5.95229 22.955 6.19656 23.3488C6.37958 23.6433 6.46636 23.857 6.57646 24.1268C6.63844 24.2792 6.70625 24.4454 6.79813 24.6459C7.03948 25.1702 7.78469 25.7193 8.18719 25.9606C8.73698 26.2902 9.75781 26.3821 10.3178 26.4069L10.3988 26.4083C10.6168 26.4083 10.9821 26.3755 11.4889 26.3099V28.6265C11.4889 29.1945 10.7663 29.2171 10.5891 29.2171C10.5665 29.2171 10.9558 29.3513 10.9558 29.3513C12.3872 29.8208 13.9119 30.0833 15.5 30.0833C17.0881 30.0833 18.6128 29.8208 20.0434 29.352C20.0434 29.352 20.4671 29.2032 20.4445 29.2062Z" fill="black"/>
<path d="M24.7925 15.0144C24.7925 13.33 24.2223 11.9329 23.2489 10.8377C23.3546 10.6007 23.4647 10.2828 23.5194 9.88323C23.6448 8.97177 23.4968 8.42489 23.3714 7.88968C23.2459 7.35448 23.0979 6.97823 23.0979 6.97823C23.0979 6.97823 22.4256 6.90968 21.8562 7.10364C21.2867 7.2976 20.7967 7.44562 20.0901 7.86708C19.7598 8.06396 19.4273 8.27979 19.1641 8.45479C18.039 8.14271 16.8016 7.98229 15.5 7.98229C14.1868 7.98229 12.9384 8.14343 11.8053 8.45771C11.5414 8.28198 11.2067 8.06468 10.8742 7.86635C10.1676 7.44489 9.67762 7.29687 9.10814 7.10291C8.53866 6.90896 7.86637 6.9775 7.86637 6.9775C7.86637 6.9775 7.71835 7.35375 7.59293 7.88896C7.46751 8.42416 7.31949 8.97104 7.44491 9.8825C7.50105 10.2923 7.6148 10.616 7.72345 10.8545C6.76824 11.9431 6.20824 13.3315 6.20824 15.0136C6.20824 19.3762 8.56491 21.3676 12.859 21.8933C12.358 22.4227 12.0219 23.1008 11.9089 23.8555C11.6267 23.9795 11.3015 24.0961 10.9887 24.1428C10.1837 24.2646 9.33272 24.1428 8.92293 23.9C8.51314 23.6572 8.02678 23.1103 7.6622 22.578C7.35449 22.1289 6.91043 21.6075 6.50793 21.4237C5.97637 21.1809 5.45939 21.0898 5.17137 21.135C4.88262 21.1809 4.74626 21.3931 4.80678 21.5455C4.8673 21.6972 5.15605 21.9254 5.46012 22.0924C5.76418 22.2594 6.23522 22.7151 6.50866 23.1555C6.81345 23.647 6.87324 23.9306 7.13137 24.4921C7.31293 24.8873 7.93418 25.3809 8.37678 25.6464C8.75668 25.8746 9.51574 26.0044 10.3368 26.0416C10.6204 26.0547 11.2905 25.9716 11.8556 25.8913V28.6257C11.8556 29.0917 11.4291 29.446 10.9872 29.3644C12.4054 29.8412 13.9199 30.0833 15.5 30.0833C17.0794 30.0833 18.5939 29.8412 20.0136 29.3658C19.5724 29.4468 19.1458 29.0924 19.1458 28.6265V24.3944C19.1458 23.4253 18.7616 22.5496 18.1447 21.897C22.4074 21.3851 24.7925 19.4411 24.7925 15.0144ZM6.19512 21.8634C6.08282 21.8058 6.0223 21.6994 6.06022 21.6243C6.09814 21.5492 6.22064 21.5353 6.33293 21.5929C6.44522 21.6505 6.50574 21.757 6.46782 21.8321C6.42991 21.9072 6.30741 21.921 6.19512 21.8634ZM7.07887 22.414C7.0198 22.4781 6.89293 22.4577 6.79522 22.3687C6.69751 22.2798 6.66616 22.1551 6.72522 22.0909C6.78428 22.0268 6.91116 22.0472 7.00887 22.1361C7.10657 22.2251 7.13793 22.3498 7.07887 22.414ZM7.62866 23.3254C7.55428 23.3779 7.42814 23.3291 7.3472 23.216C7.26626 23.103 7.26116 22.9681 7.33553 22.9156C7.40991 22.8631 7.53605 22.912 7.61699 23.025C7.6972 23.138 7.70303 23.2729 7.62866 23.3254ZM8.41835 24.0116C8.36803 24.0932 8.22512 24.0969 8.0997 24.0203C7.97428 23.9437 7.91303 23.8154 7.96335 23.7337C8.01366 23.6521 8.15657 23.6484 8.28199 23.725C8.40741 23.8016 8.46866 23.9299 8.41835 24.0116ZM9.16501 24.6831C9.0097 24.6642 8.89449 24.5672 8.90762 24.4666C8.92001 24.3659 9.05637 24.3003 9.21095 24.3193C9.36626 24.3382 9.48147 24.4352 9.46835 24.5358C9.45595 24.6357 9.32032 24.7021 9.16501 24.6831ZM10.3689 24.8574C10.2033 24.8479 10.0743 24.7531 10.0808 24.6467C10.0874 24.5402 10.2267 24.4607 10.3922 24.4702C10.5577 24.4797 10.6868 24.5745 10.6802 24.6809C10.6737 24.7881 10.5344 24.8669 10.3689 24.8574ZM11.5049 24.7436C11.3284 24.7436 11.1855 24.6518 11.1855 24.5387C11.1855 24.4257 11.3284 24.3339 11.5049 24.3339C11.6814 24.3339 11.8243 24.4257 11.8243 24.5387C11.8243 24.6518 11.6806 24.7436 11.5049 24.7436Z" fill="white"/>
</g>
<defs>
<clipPath id="clip0_13_66">
<rect width="31" height="30" fill="white"/>
</clipPath>
</defs>
</svg>
