<svg width="64" height="24" viewBox="0 0 64 24" fill="none" xmlns="http://www.w3.org/2000/svg">
<g clip-path="url(#clip0_13_42)">
<path d="M33.042 7.94935L36.0868 7.75062C36.1563 8.2533 36.2836 8.62738 36.492 8.89626C36.8278 9.3171 37.2909 9.52753 37.9045 9.52753C38.356 9.52753 38.7149 9.42232 38.958 9.2002C39.1896 9.02485 39.3285 8.74428 39.3285 8.45203C39.3285 8.17146 39.2012 7.90259 38.9812 7.72724C38.7496 7.51681 38.2055 7.30639 37.3488 7.11935C35.9479 6.80371 34.9407 6.38286 34.3502 5.84511C33.7598 5.34243 33.424 4.60595 33.4472 3.82271C33.4472 3.28496 33.6093 2.74721 33.9103 2.30298C34.2576 1.8003 34.7323 1.40283 35.2996 1.18072C35.9132 0.911843 36.7699 0.771561 37.8466 0.771561C39.1664 0.771561 40.1737 1.01706 40.8683 1.51973C41.563 2.01072 41.9797 2.80566 42.1071 3.89285L39.097 4.0682C39.0159 3.60059 38.8538 3.26158 38.5876 3.03946C38.3213 2.81735 37.9739 2.71214 37.5224 2.71214C37.152 2.71214 36.8741 2.79397 36.6889 2.94594C36.5152 3.08622 36.3994 3.29665 36.411 3.53045C36.411 3.7058 36.5036 3.86947 36.6425 3.97468C36.7931 4.11496 37.152 4.24355 37.7192 4.36046C39.1201 4.6644 40.1158 4.96835 40.7294 5.28398C41.343 5.59962 41.7829 5.98539 42.0492 6.44131C42.3271 6.90892 42.466 7.44667 42.4544 7.99611C42.4544 8.65076 42.2692 9.30541 41.8987 9.85485C41.5166 10.4277 40.9841 10.8719 40.3589 11.1408C39.699 11.433 38.8654 11.585 37.8698 11.585C36.11 11.585 34.8944 11.246 34.2113 10.5563C33.5282 9.86654 33.123 9.00147 33.042 7.94935ZM0.729378 11.4097V0.958604H6.06657C7.05065 0.958604 7.81476 1.04044 8.33574 1.21579C8.84515 1.37945 9.29667 1.71847 9.59768 2.17439C9.93343 2.67706 10.0955 3.26158 10.0839 3.86947C10.1187 4.8982 9.59768 5.88018 8.70622 6.39455C8.3589 6.59329 7.97684 6.73357 7.58321 6.80371C7.87265 6.88554 8.16208 7.02582 8.41679 7.18949C8.6136 7.35315 8.77569 7.54019 8.92619 7.73893C9.09985 7.93766 9.25036 8.15977 9.37771 8.39358L10.9291 11.4213H7.29378L5.58032 8.20653C5.36035 7.79738 5.17511 7.5285 5.00145 7.39991C4.7699 7.23625 4.49204 7.15442 4.21418 7.15442H3.93632V11.398H0.729378V11.4097ZM3.93632 5.19046H5.29088C5.58032 5.16708 5.85818 5.12032 6.13603 5.05018C6.34443 5.01511 6.52967 4.89821 6.65702 4.72285C6.96961 4.302 6.9233 3.7058 6.54124 3.34341C6.33285 3.16805 5.92764 3.07453 5.34877 3.07453H3.93632V5.19046ZM0 20.3644L3.04486 20.1656C3.11433 20.6683 3.24168 21.0424 3.45007 21.3113C3.77424 21.7321 4.24891 21.9542 4.86252 21.9542C5.31404 21.9542 5.67294 21.849 5.91606 21.6269C6.14761 21.4399 6.28654 21.171 6.28654 20.8787C6.28654 20.5982 6.15919 20.3293 5.93922 20.1539C5.70767 19.9435 5.16353 19.7331 4.29522 19.546C2.89436 19.2304 1.88712 18.8096 1.29667 18.2718C0.706223 17.7691 0.370478 17.0326 0.393632 16.2494C0.393632 15.7116 0.555716 15.1739 0.856729 14.7297C1.20405 14.227 1.67873 13.8295 2.24602 13.6074C2.85962 13.3385 3.71635 13.1983 4.79305 13.1983C6.11288 13.1983 7.12012 13.4437 7.81476 13.9464C8.50941 14.4491 8.91462 15.2324 9.04197 16.3195L6.03184 16.4949C5.9508 16.0273 5.78871 15.6883 5.52243 15.4662C5.26773 15.244 4.90883 15.1388 4.45731 15.1505C4.08683 15.1505 3.80897 15.2324 3.62373 15.396C3.43849 15.5363 3.3343 15.7467 3.34588 15.9805C3.34588 16.1559 3.43849 16.3195 3.57742 16.4248C3.72793 16.565 4.08683 16.6936 4.65412 16.8105C6.05499 17.1145 7.05065 17.4184 7.66425 17.7341C8.27786 18.0497 8.7178 18.4355 8.98408 18.8914C9.26194 19.359 9.40087 19.8967 9.40087 20.4345C9.40087 21.0891 9.20405 21.7321 8.84515 22.2815C8.4631 22.8544 7.93053 23.2986 7.30535 23.5675C6.64544 23.8597 5.81187 24.0117 4.81621 24.0117C3.05644 24.0117 1.84081 23.6727 1.15774 22.983C0.474674 22.2815 0.0926194 21.4165 0 20.3644H0Z" fill="#1E1E1E"/>
<path d="M15.398 19.546L18.1997 20.3994C18.0492 21.1125 17.7366 21.7905 17.3083 22.3867C16.9146 22.9128 16.3937 23.322 15.8032 23.5908C15.2012 23.8597 14.4371 24 13.5109 24C12.3879 24 11.4617 23.8363 10.7555 23.509C10.0377 23.1817 9.42405 22.5972 8.90307 21.7672C8.38208 20.9372 8.12738 19.8734 8.12738 18.5757C8.12738 16.8456 8.5789 15.5129 9.49352 14.5894C10.4081 13.6659 11.6932 13.1982 13.3604 13.1982C14.6686 13.1982 15.6874 13.4671 16.44 13.9932C17.1809 14.5309 17.7366 15.3492 18.1071 16.4481L15.2822 17.0794C15.2128 16.8339 15.1086 16.5884 14.9696 16.378C14.796 16.1325 14.576 15.9454 14.3097 15.8052C14.0434 15.6649 13.7424 15.6064 13.4414 15.6064C12.712 15.6064 12.1563 15.8987 11.7743 16.4949C11.4848 16.9274 11.3343 17.6171 11.3343 18.5524C11.3343 19.7097 11.508 20.5046 11.8553 20.9372C12.2026 21.3697 12.6889 21.5801 13.3256 21.5801C13.9392 21.5801 14.4023 21.4048 14.7149 21.0658C15.0275 20.7034 15.2591 20.2007 15.398 19.546ZM21.9392 13.3736H25.1346V17.0326H28.631V13.3736H31.8495V23.8246H28.631V19.5928H25.1346V23.8246H21.9392V13.3736Z" fill="#1E1E1E"/>
<path d="M31.4095 18.5991C31.4095 16.8924 31.8842 15.5597 32.822 14.6128C33.7598 13.6659 35.0796 13.1866 36.7583 13.1866C38.4834 13.1866 39.8032 13.6542 40.7409 14.5894C41.6787 15.5246 42.1418 16.8339 42.1418 18.5173C42.1418 19.7448 41.9334 20.7384 41.5282 21.5217C41.1346 22.2932 40.521 22.9245 39.7684 23.3453C38.9928 23.7779 38.0318 24 36.8857 24C35.7163 24 34.7554 23.813 33.9913 23.4389C33.204 23.0414 32.5557 22.4218 32.1273 21.662C31.6527 20.8436 31.4095 19.8266 31.4095 18.5991ZM34.6049 18.6108C34.6049 19.6629 34.8017 20.4228 35.1838 20.8904C35.5658 21.3463 36.0984 21.5801 36.7699 21.5801C37.453 21.5801 37.9855 21.358 38.3676 20.9021C38.7496 20.4462 38.9349 19.6395 38.9349 18.4705C38.9349 17.4886 38.7381 16.7638 38.3444 16.3195C37.9508 15.8636 37.4182 15.6415 36.7467 15.6415C36.1563 15.6181 35.589 15.8753 35.1954 16.3312C34.8017 16.7871 34.6049 17.547 34.6049 18.6108ZM45.4182 18.5991C45.4182 16.8924 45.8929 15.5597 46.8307 14.6128C47.7684 13.6659 49.0883 13.1866 50.767 13.1866C52.492 13.1866 53.8234 13.6542 54.7496 14.5894C55.6758 15.5246 56.1505 16.8339 56.1505 18.5173C56.1505 19.7448 55.9421 20.7384 55.5369 21.5217C55.1433 22.2932 54.5297 22.9245 53.7771 23.3453C53.0014 23.7779 52.0405 24 50.8944 24C49.725 24 48.7641 23.813 48 23.4389C47.2127 23.0414 46.5644 22.4218 46.136 21.662C45.6614 20.8436 45.4182 19.8266 45.4182 18.5991ZM48.6136 18.6108C48.6136 19.6629 48.8104 20.4228 49.1925 20.8904C49.5745 21.3463 50.1071 21.5801 50.7786 21.5801C51.4616 21.5801 51.9942 21.358 52.3763 20.9021C52.7583 20.4462 52.9436 19.6395 52.9436 18.4705C52.9436 17.4886 52.7467 16.7638 52.3531 16.3195C51.9595 15.8636 51.4269 15.6415 50.7554 15.6415C50.165 15.6181 49.5861 15.8753 49.204 16.3312C48.8104 16.7871 48.6136 17.547 48.6136 18.6108Z" fill="#1E1E1E"/>
<path d="M55.8147 13.3736H59.0101V21.2528H64V23.8246H55.8032V13.3736H55.8147Z" fill="#1E1E1E"/>
<path d="M52.2928 12.7705C55.5098 10.3225 56.5019 6.1729 54.5085 3.502C52.5152 0.831096 48.2914 0.650341 45.0743 3.09827C41.8573 5.5462 40.8652 9.69583 42.8586 12.3667C44.8519 15.0376 49.0757 15.2184 52.2928 12.7705Z" fill="white"/>
<path d="M34.6541 6.60971L51.2785 -6.04013L62.782 9.37376L46.1577 22.0236L34.6541 6.60971Z" fill="white"/>
<path d="M52.2928 12.7705C55.5098 10.3225 56.5019 6.1729 54.5085 3.502C52.5152 0.831096 48.2914 0.650341 45.0743 3.09827C41.8573 5.5462 40.8652 9.69583 42.8586 12.3667C44.8519 15.0376 49.0757 15.2184 52.2928 12.7705Z" fill="white"/>
<path d="M39.2834 7.63895L50.9243 -1.21855L58.1496 8.4631L46.5087 17.3206L39.2834 7.63895Z" fill="white"/>
<path d="M52.2928 12.7705C55.5098 10.3225 56.5019 6.1729 54.5085 3.502C52.5152 0.831096 48.2914 0.650341 45.0743 3.09827C41.8573 5.5462 40.8652 9.69583 42.8586 12.3667C44.8519 15.0376 49.0757 15.2184 52.2928 12.7705Z" fill="white" stroke="#1E1E1E" stroke-width="4" stroke-miterlimit="10"/>
<path d="M39.2834 7.63895L50.9243 -1.21855L58.1496 8.4631L46.5087 17.3206L39.2834 7.63895Z" stroke="#1E1E1E" stroke-width="4" stroke-miterlimit="10"/>
<path d="M52.2928 12.7705C55.5098 10.3225 56.5019 6.1729 54.5085 3.502C52.5152 0.831096 48.2914 0.650341 45.0743 3.09827C41.8573 5.5462 40.8652 9.69583 42.8586 12.3667C44.8519 15.0376 49.0757 15.2184 52.2928 12.7705Z" stroke="#1E1E1E" stroke-width="4" stroke-miterlimit="10"/>
<path d="M39.2834 7.63895L50.9243 -1.21855L58.1496 8.4631L46.5087 17.3206L39.2834 7.63895Z" fill="white"/>
<path d="M52.2928 12.7705C55.5098 10.3225 56.5019 6.1729 54.5085 3.502C52.5152 0.831096 48.2914 0.650341 45.0743 3.09827C41.8573 5.5462 40.8652 9.69583 42.8586 12.3667C44.8519 15.0376 49.0757 15.2184 52.2928 12.7705Z" fill="white" stroke="#1E1E1E" stroke-width="4" stroke-miterlimit="10"/>
<path d="M39.2834 7.63895L50.9243 -1.21855L58.1496 8.4631L46.5087 17.3206L39.2834 7.63895Z" stroke="#1E1E1E" stroke-width="4" stroke-miterlimit="10"/>
<path d="M34.6541 6.60971L51.2785 -6.04013L62.782 9.37376L46.1577 22.0236L34.6541 6.60971Z" stroke="#1E1E1E" stroke-width="4" stroke-miterlimit="10"/>
<path d="M52.2928 12.7705C55.5098 10.3225 56.5019 6.1729 54.5085 3.502C52.5152 0.831096 48.2914 0.650341 45.0743 3.09827C41.8573 5.5462 40.8652 9.69583 42.8586 12.3667C44.8519 15.0376 49.0757 15.2184 52.2928 12.7705Z" stroke="#1E1E1E" stroke-width="4" stroke-miterlimit="10"/>
<path d="M45.4298 7.1661L46.5875 6.34778L48.0116 8.39357C48.2547 8.7209 48.4399 9.0716 48.5789 9.45738C48.6599 9.74964 48.6367 10.0653 48.521 10.3458C48.3705 10.6965 48.1273 10.9888 47.8032 11.1992C47.4211 11.4681 47.0969 11.6201 46.8191 11.6668C46.5528 11.7136 46.275 11.6668 46.0202 11.5499C45.7424 11.4096 45.4993 11.2109 45.314 10.9537L46.3097 10.0185C46.3907 10.1471 46.4949 10.264 46.6107 10.3575C46.6917 10.416 46.7844 10.451 46.8886 10.451C46.9696 10.451 47.0506 10.416 47.1085 10.3692C47.2243 10.2991 47.3053 10.1588 47.2938 10.0185C47.259 9.81978 47.178 9.62104 47.0506 9.46907L45.4298 7.1661ZM48.903 8.46371L49.9566 7.62202C50.0723 7.7623 50.2229 7.86751 50.3849 7.92596C50.6165 7.9961 50.8596 7.94934 51.0564 7.79737C51.1954 7.70385 51.3111 7.57526 51.3574 7.41159C51.4269 7.20117 51.3111 6.96737 51.1027 6.89722C51.068 6.88553 51.0333 6.87384 50.9985 6.87384C50.8596 6.86215 50.6165 6.9206 50.2576 7.07258C49.6671 7.31807 49.204 7.41159 48.8567 7.37652C48.521 7.34145 48.2084 7.1661 48.0231 6.87384C47.8842 6.67511 47.8147 6.44131 47.8032 6.2075C47.8032 5.93863 47.8726 5.66975 48.0231 5.44764C48.2431 5.132 48.5094 4.86313 48.8336 4.6527C49.3198 4.31369 49.7482 4.15002 50.1187 4.15002C50.4891 4.15002 50.8365 4.32538 51.1606 4.68777L50.1187 5.51778C49.9103 5.2489 49.5166 5.19045 49.2504 5.40088L49.2156 5.43595C49.0998 5.50609 49.0188 5.6113 48.9725 5.73989C48.9378 5.83341 48.9609 5.93863 49.0188 6.02046C49.0651 6.07891 49.1346 6.12567 49.2156 6.12567C49.3082 6.13736 49.4703 6.0906 49.7019 5.98539C50.2807 5.73989 50.7207 5.59961 51.0217 5.55285C51.2764 5.50609 51.5427 5.52947 51.7858 5.63468C52.0058 5.7282 52.191 5.89187 52.3184 6.0906C52.4805 6.3244 52.5731 6.60497 52.5847 6.89722C52.5962 7.20117 52.5152 7.49342 52.3531 7.75061C52.1447 8.06625 51.8784 8.33512 51.5658 8.54554C50.9291 8.98977 50.4081 9.17682 49.9913 9.10667C49.5398 9.03653 49.1693 8.80273 48.903 8.46371Z" fill="#1E1E1E"/>
</g>
<defs>
<clipPath id="clip0_13_42">
<rect width="64" height="24" fill="white"/>
</clipPath>
</defs>
</svg>
